<?xml version="1.0" encoding="UTF-8"?>
<svg width="16px" height="18px" viewBox="0 0 16 18" version="1.1" xmlns="http://www.w3.org/2000/svg" xmlns:xlink="http://www.w3.org/1999/xlink">
    <!-- Generator: Sketch 52.4 (67378) - http://www.bohemiancoding.com/sketch -->
    <title>切图</title>
    <desc>Created with Sketch.</desc>
    <g id="Page-1" stroke="none" stroke-width="1" fill="none" fill-rule="evenodd">
        <g id="切图" transform="translate(-347.000000, -879.000000)" fill="@text-color" fill-rule="nonzero">
            <g id="lock1" transform="translate(347.000000, 879.000000)">
                <path d="M15.3400271,7.68214286 C14.9535957,7.34464286 14.4043419,7.11964286 13.807327,7.11964286 L13.6488467,7.11964286 L13.6488467,5.04441964 C13.6488467,3.66428571 13.0170963,2.40066964 11.9880597,1.48861607 C10.9742198,0.578571429 9.54138399,0 7.98697422,0 C6.44993216,0 5.05834464,0.552455357 4.02930801,1.44642857 L3.98154681,1.48861607 C2.95251018,2.39866071 2.32075984,3.66428571 2.32075984,5.04441964 L2.32075984,7.12165179 L2.15793758,7.12165179 C1.57394844,7.12165179 1.02469471,7.34464286 0.638263229,7.68415179 L0.638263229,7.69419643 C0.23880597,8.03772321 0,8.51584821 0,9.04620536 L0,16.0734375 C0,16.6037946 0.23880597,17.0879464 0.638263229,17.4274554 C1.02469471,17.7810268 1.57394844,18 2.15793758,18 L13.809498,18 C14.3761194,18 14.8862958,17.8071429 15.2770692,17.4837054 L15.3421981,17.4254464 C15.7329715,17.0879464 15.9804613,16.6037946 15.9804613,16.0714286 L15.9804613,9.04620536 C15.9782904,8.51584821 15.7329715,8.03772321 15.3400271,7.68214286 Z M4.10963365,5.04441964 C4.10963365,4.09620536 4.53731343,3.22834821 5.2385346,2.60758929 L5.28629579,2.56138393 C5.98100407,1.96272321 6.94056988,1.59308036 7.98697422,1.59308036 C9.05725916,1.59308036 10.0211669,1.97276786 10.7289009,2.60758929 C11.4301221,3.22633929 11.8751696,4.09620536 11.8751696,5.04441964 L11.8751696,7.12165179 L4.10963365,7.12165179 L4.10963365,5.04441964 Z M14.1894166,16.0734375 C14.1894166,16.1618304 14.1546811,16.25625 14.0786974,16.3125 L14.0548168,16.3325893 C13.9896879,16.3908482 13.9093623,16.4109375 13.809498,16.4109375 L2.15793758,16.4109375 C2.05807327,16.4109375 1.96472185,16.3747768 1.90176391,16.3125 C1.82578019,16.2542411 1.78453189,16.1618304 1.78453189,16.0734375 L1.78453189,9.04620536 C1.78453189,8.9578125 1.82578019,8.86941964 1.90176391,8.81116071 C1.96689281,8.74888393 2.06024423,8.70669643 2.15793758,8.70669643 L13.809498,8.70669643 C13.9137042,8.70669643 14.0135685,8.74888393 14.0786974,8.81116071 C14.1546811,8.86941964 14.1894166,8.9578125 14.1894166,9.04620536 L14.1894166,16.0734375 Z M7.98697422,9.94821429 C7.39647218,9.94821429 6.85807327,10.1611607 6.46078697,10.5046875 C6.08086839,10.8542411 5.84206242,11.3383929 5.84206242,11.8627232 C5.84206242,12.3830357 6.08086839,12.8671875 6.46078697,13.2207589 C6.74084125,13.4558036 7.07516961,13.6325893 7.44857531,13.7209821 L7.44857531,14.6993304 C7.44857531,14.9604911 7.68738128,15.1834821 7.98697422,15.1834821 C8.28005427,15.1834821 8.52971506,14.9604911 8.52971506,14.6993304 L8.52971506,13.7209821 C8.90312076,13.6325893 9.23744912,13.4558036 9.5109905,13.2207589 C9.89742198,12.8671875 10.136228,12.3830357 10.136228,11.8627232 C10.136228,11.3363839 9.89742198,10.8522321 9.5109905,10.5046875 C9.1202171,10.1611607 8.58181818,9.94821429 7.98697422,9.94821429 Z M8.75766621,12.5457589 C8.56445047,12.7024554 8.30176391,12.8209821 8.01519674,12.8270089 L7.95658073,12.8270089 C7.67001357,12.8209821 7.41383989,12.7024554 7.22062415,12.5457589 C7.0339213,12.3689732 6.91017639,12.1238839 6.91017639,11.8647321 C6.91017639,11.5995536 7.0339213,11.3484375 7.22062415,11.1877232 C7.42035278,11.0109375 7.68738128,10.9004464 7.98697422,10.9004464 C8.2843962,10.9004464 8.56662144,11.0089286 8.75766621,11.1877232 C8.93785617,11.3484375 9.06811398,11.5995536 9.06811398,11.8647321 C9.06811398,12.1238839 8.94002714,12.3669643 8.75766621,12.5457589 Z" id="Shape"></path>
            </g>
        </g>
    </g>
</svg>